<?xml version="1.0" standalone="no"?><!DOCTYPE svg PUBLIC "-//W3C//DTD SVG 1.1//EN" "http://www.w3.org/Graphics/SVG/1.1/DTD/svg11.dtd"><svg t="1644255835951" class="icon" viewBox="0 0 1024 1024" version="1.1" xmlns="http://www.w3.org/2000/svg" p-id="1362" xmlns:xlink="http://www.w3.org/1999/xlink" width="32" height="32"><defs><style type="text/css"></style></defs><path d="M959.33 928.22h-896V98.15h896v830.07z m-516.5-147.25c-28.69 0-46.16-1.11-52.42-3.32-6.26-2.22-9.39-7.75-9.39-16.6 41.2-19.79 61.8-49.22 61.8-88.28V312.22c0-72.13-46.55-108.2-139.65-108.2-94.4 0-141.6 36.33-141.6 108.98v360.55c0 67.19 52.28 100.78 156.86 100.78 0 47.66 25.17 71.48 75.49 71.48h48.9v-64.84zM302.4 696.2c-13.93 0-20.9-5.6-20.9-16.8V297.76c0-11.19 6.96-16.8 20.9-16.8 13.67 0 20.51 5.6 20.51 16.8V679.4c0 11.2-6.84 16.8-20.51 16.8z m274.81-487.11H465.88v81.64h111.33v-81.64z m0 106.64H465.88v453.52h111.33V315.73z m283.98 61.33c0-21.09-8.49-37.11-25.46-48.05-16.97-10.94-35.51-16.41-55.62-16.41-31.07 0-54.05 6.12-68.93 18.36v-15.23H599.86v453.52h111.33V404.4c0-13.28 6.45-19.92 19.34-19.92s19.34 6.9 19.34 20.7v364.06H861.2V377.06z" p-id="1363"></path></svg>